<svg width="136" height="38" viewBox="0 0 136 38" fill="none" xmlns="http://www.w3.org/2000/svg">
<path fill-rule="evenodd" clip-rule="evenodd" d="M55.2743 12.5068C54.3334 14.1694 53.8408 16.0509 53.8455 17.9645C53.8799 18.2395 53.9074 18.516 53.9348 18.7925C53.9948 19.3962 54.0547 19.9997 54.1868 20.586C54.7521 23.1041 56.0763 25.1721 58.1858 26.6493C59.7609 27.7496 61.6024 28.4002 63.5149 28.5322C64.4416 28.6115 65.3744 28.5821 66.2944 28.4446C68.0841 28.157 69.7398 27.5061 71.2068 26.3765C72.3318 25.5163 73.2569 24.4193 73.9178 23.1622C74.5417 21.9721 74.9306 20.6715 75.063 19.3323C75.2012 18.1422 75.1649 16.9381 74.9554 15.7586C74.6779 14.2102 74.0497 12.747 73.1198 11.4826C72.3091 10.3857 71.2721 9.47865 70.0802 8.82368C68.7892 8.10675 67.4318 7.60254 65.953 7.53754L65.7615 7.529C64.7309 7.48282 63.6858 7.43599 62.6729 7.56118C61.3219 7.73605 60.0199 8.18389 58.845 8.87784C57.349 9.73777 56.1144 10.9925 55.2743 12.5068ZM59.0645 18.6048C59.0449 18.4734 59.0273 18.3565 59.0113 18.2599C59.0738 16.246 59.5022 14.6349 60.7853 13.3852C61.6264 12.5649 62.6552 12.1464 63.8288 11.9976C65.1261 11.8174 66.4446 12.1113 67.5452 12.8259C68.8655 13.6659 69.5286 14.9727 69.8562 16.4578C70.1402 17.7158 70.0691 19.0287 69.6508 20.2482C68.9203 22.395 67.4513 23.6802 65.1716 23.9904C63.8472 24.1665 62.5055 23.8347 61.4128 23.0608C60.3201 22.2869 59.5564 21.1276 59.2734 19.8129C59.181 19.3818 59.1155 18.9448 59.0645 18.6048Z" fill="black"/>
<path d="M54.0031 37.1157C54.4595 36.7086 54.7323 36.1306 54.8216 35.3815L53.8945 35.3844C53.8039 35.9687 53.621 36.3784 53.3459 36.6134C53.0707 36.8485 52.6756 36.966 52.1605 36.966C51.8984 36.9761 51.6381 36.9188 51.404 36.7996C51.1699 36.6804 50.9699 36.5031 50.8226 36.2845C50.5032 35.8295 50.3434 35.2177 50.3434 34.4489V33.7595C50.3441 32.9454 50.5126 32.3174 50.849 31.8756C51.1855 31.4338 51.65 31.2128 52.2427 31.2128C52.7219 31.2135 53.0961 31.3405 53.3654 31.594C53.6347 31.8474 53.8094 32.257 53.8896 32.823H54.8216C54.7506 32.0798 54.4898 31.4984 54.0392 31.0789C53.5887 30.6594 52.9899 30.4496 52.2427 30.4496C51.7169 30.438 51.1988 30.5777 50.7493 30.8524C50.3132 31.1291 49.9679 31.5292 49.7566 32.0026C49.5136 32.5484 49.394 33.1418 49.4065 33.7398V34.4183C49.4098 35.4235 49.6618 36.2261 50.1625 36.8261C50.6632 37.4262 51.3292 37.7262 52.1605 37.7262C52.9325 37.7262 53.5467 37.5227 54.0031 37.1157Z" fill="black"/>
<path fill-rule="evenodd" clip-rule="evenodd" d="M34.7854 35.7753H37.7321L38.404 37.6287H39.3605L36.67 30.5461H35.8583L33.1718 37.6287H34.1234L34.7854 35.7753ZM37.4573 35.0121H35.0661L36.2593 31.6993L37.4573 35.0121Z" fill="black"/>
<path fill-rule="evenodd" clip-rule="evenodd" d="M69.3702 35.7753H66.4235L65.7614 37.6287H64.8049L67.4915 30.5461H68.3032L70.9936 37.6287H70.0421L69.3702 35.7753ZM66.7032 35.0121H69.0954L67.8973 31.6993L66.7032 35.0121Z" fill="black"/>
<path fill-rule="evenodd" clip-rule="evenodd" d="M81.3388 30.5461V37.6287H83.286C83.8662 37.6364 84.4387 37.4939 84.9486 37.2151C85.4208 36.9485 85.8027 36.5454 86.0449 36.0579C86.3105 35.512 86.4419 34.9098 86.4283 34.302V33.849C86.4364 33.2488 86.3023 32.6553 86.0371 32.1178C85.7957 31.6305 85.4166 31.2259 84.9476 30.9548C84.452 30.6761 83.8917 30.535 83.3241 30.5461H81.3388ZM82.2669 36.8655V31.3103L83.3515 31.3152C84.0413 31.325 84.5737 31.5515 84.9486 31.9947C85.3235 32.4378 85.5109 33.0615 85.5109 33.8658V34.2804C85.509 35.1083 85.3101 35.7461 84.9143 36.1938C84.5186 36.6416 83.9621 36.8655 83.2449 36.8655H82.2669Z" fill="black"/>
<path d="M101.201 34.3553H98.1535V36.8655H101.694V37.6287H97.2303V30.5461H101.651V31.3103H98.1584V33.5921H101.206L101.201 34.3553Z" fill="black"/>
<path d="M115.745 36.3258L113.445 30.5461H112.247V37.6287H113.175V34.8713L113.083 31.9091L115.388 37.6287H116.098L118.407 31.8943L118.32 34.8713V37.6287H119.248V30.5461H118.045L115.745 36.3258Z" fill="black"/>
<path d="M132.293 34.1022L134.129 30.5461H135.182L132.757 34.9875V37.6287H131.83V34.9875L129.404 30.5461H130.467L132.293 34.1022Z" fill="black"/>
<path fill-rule="evenodd" clip-rule="evenodd" d="M38.6368 20.5653V21.0429C38.6368 21.5609 38.6365 22.079 38.6362 22.597C38.6351 24.2376 38.634 25.8783 38.6437 27.5189C38.6437 27.8665 38.5615 27.9935 38.1948 27.9876C36.8334 27.9679 35.4711 27.9738 34.1097 27.9876C33.83 27.9876 33.695 27.9335 33.696 27.6085C33.7038 21.1601 33.7061 14.7114 33.7029 8.26234C33.7029 8.22111 33.706 8.17988 33.7101 8.12684C33.7124 8.09627 33.715 8.06175 33.7175 8.02107H34.1645C34.98 8.02107 35.7944 8.01975 36.6083 8.01844C38.2344 8.01581 39.8586 8.01319 41.4847 8.02107C43.0818 8.0319 44.6143 8.3165 45.9962 9.1969C47.0495 9.86656 47.7273 10.8218 48.1067 12.0104C48.4069 12.9881 48.5126 14.0158 48.4177 15.0347C48.2759 16.827 47.4974 18.2747 45.9532 19.2467C45.7463 19.3793 45.5266 19.4883 45.2982 19.6016C45.1876 19.6565 45.0748 19.7124 44.9605 19.7725C46.5338 21.9929 48.1044 24.21 49.6725 26.4238C49.8833 26.6975 50.0792 26.9825 50.2593 27.2776C50.2989 27.3492 50.3229 27.4285 50.3296 27.5102C50.3364 27.5919 50.3257 27.6741 50.2984 27.7513C50.2505 27.816 50.1888 27.8691 50.1179 27.9067C50.047 27.9444 49.9687 27.9656 49.8886 27.9689C48.3786 27.9847 46.8686 27.9896 45.3586 27.964C45.1933 27.964 44.9801 27.7867 44.8764 27.6331C44.148 26.5487 43.4239 25.4612 42.6998 24.3737C41.9161 23.1966 41.1324 22.0197 40.3434 20.8469C40.23 20.6993 40.0635 20.6024 39.8799 20.5771C39.5939 20.5532 39.3064 20.5574 39.0061 20.5618C38.8854 20.5635 38.7625 20.5653 38.6368 20.5653ZM39.4654 16.9067C40.0972 16.9159 40.7129 16.9248 41.3253 16.8812C41.8095 16.8432 42.281 16.7065 42.7111 16.4794C43.5776 16.0136 43.7928 15.1874 43.7341 14.2528C43.6754 13.2759 43.2158 12.559 42.2671 12.2468C41.4476 11.9753 40.616 11.9934 39.7807 12.0115C39.4038 12.0196 39.0262 12.0278 38.6486 12.0095L38.6544 16.8989C38.9281 16.8989 39.1984 16.9028 39.4654 16.9067Z" fill="black"/>
<path d="M118.942 12.3413H127.465C127.336 12.5589 127.243 12.7194 127.156 12.877C126.295 14.2774 125.435 15.6784 124.574 17.0801L121.391 22.2679C121.142 22.6727 120.894 23.0777 120.646 23.4827L120.641 23.4911L120.64 23.4933L120.639 23.495C119.878 24.7374 119.118 25.98 118.348 27.2165C118.181 27.4854 118.134 27.7128 118.329 27.9659C118.357 27.9719 118.386 27.9758 118.415 27.9777C123.983 27.9745 129.552 27.9771 135.121 27.9856C135.432 27.9856 135.506 27.8734 135.506 27.5779C135.49 26.41 135.482 25.242 135.506 24.075C135.515 23.6831 135.399 23.5718 135.008 23.5718C132.864 23.5836 130.72 23.5821 128.576 23.5807C127.862 23.5802 127.147 23.5797 126.433 23.5797H125.954C126.004 23.4908 126.05 23.4072 126.093 23.3278C126.176 23.1774 126.25 23.0418 126.332 22.913C127.614 20.8837 128.899 18.857 130.19 16.8329C130.705 16.0249 131.221 15.2181 131.739 14.4113L131.74 14.4095L131.741 14.4081L131.742 14.4059L131.744 14.4031C132.792 12.7673 133.84 11.1314 134.872 9.48442C134.927 9.39718 134.99 9.31124 135.055 9.22434L135.055 9.22347L135.056 9.22219L135.056 9.22184C135.304 8.88763 135.562 8.53879 135.372 8.04663H118.942V12.3413Z" fill="black"/>
<path d="M100.472 8.01815H105.054C105.656 8.01815 106.259 8.01855 106.861 8.01895C108.753 8.02021 110.644 8.02147 112.538 8.01027C112.899 8.01027 112.98 8.14223 113.01 8.47312C113.06 9.02926 113.129 9.58343 113.198 10.1374L113.198 10.1393C113.238 10.4587 113.278 10.778 113.314 11.0976C113.341 11.3301 113.357 11.5635 113.374 11.8101C113.382 11.9279 113.391 12.0488 113.4 12.1739H112.943C112.371 12.1739 111.798 12.1744 111.226 12.1749C109.438 12.1763 107.65 12.1778 105.863 12.1651C105.483 12.1651 105.374 12.2764 105.387 12.6506C105.411 13.6275 105.411 14.6051 105.387 15.5833C105.377 15.9674 105.479 16.0973 105.876 16.0934C107.392 16.0789 108.903 16.081 110.415 16.0831C110.951 16.0838 111.488 16.0845 112.024 16.0845H112.487V19.5796H105.391V20.1202C105.391 20.4288 105.392 20.7375 105.394 21.0463C105.397 21.8103 105.401 22.5748 105.382 23.3385C105.371 23.7452 105.512 23.8309 105.89 23.8309C107.632 23.8199 109.373 23.8214 111.115 23.8229C111.721 23.8235 112.326 23.824 112.932 23.824H113.398C113.379 24.0259 113.362 24.224 113.344 24.4193C113.306 24.8365 113.27 25.2414 113.225 25.6458C113.2 25.8763 113.169 26.1064 113.137 26.3365C113.086 26.7149 113.034 27.0933 113.01 27.4736C112.989 27.8291 112.89 27.9847 112.521 27.9837C108.637 27.9759 104.754 27.9759 100.87 27.9837C100.59 27.9837 100.457 27.9276 100.458 27.6046C100.465 21.1542 100.468 14.7042 100.464 8.25449C100.459 8.19845 100.463 8.1424 100.469 8.05983L100.472 8.01815Z" fill="black"/>
<path fill-rule="evenodd" clip-rule="evenodd" d="M13.8075 8.01808H13.3743L13.3567 8.10573C13.5083 8.21504 13.66 8.32401 13.8118 8.43297C14.2397 8.7402 14.6674 9.04728 15.0897 9.36133C15.2259 9.44973 15.3365 9.57268 15.4105 9.71782C15.8457 10.8326 16.1088 11.9622 15.9259 13.1882C15.7019 14.6654 15.3782 16.1091 14.8501 17.5016C14.8207 17.579 14.7924 17.6574 14.7639 17.7359C14.5496 18.3276 14.3322 18.9277 13.6873 19.1885V21.5697C14.3102 21.8396 14.5929 23.8328 14.1577 24.4148C14.1866 24.4995 14.2191 24.5756 14.2492 24.646C14.3055 24.7778 14.3533 24.8897 14.3533 25.0007C14.3494 25.2243 14.3163 25.4495 14.2832 25.6747C14.2656 25.7938 14.2481 25.9129 14.2349 26.0318C14.1875 26.4635 14.1428 26.8957 14.0969 27.3405C14.0755 27.5471 14.0538 27.7565 14.0315 27.9699C14.3752 27.9699 14.7148 27.9688 15.0517 27.9677C15.9079 27.9649 16.7462 27.9622 17.5885 27.9778C17.9669 27.9866 18.0951 27.8901 18.0951 27.4854C18.08 26.0621 18.0823 24.6393 18.0846 23.2163L18.0846 23.2146C18.0854 22.6976 18.0863 22.1805 18.0863 21.6633V21.2093H18.4589C18.8813 21.1927 19.3045 21.1832 19.7276 21.1737C20.6836 21.1523 21.6398 21.1309 22.5889 21.0271C24.1938 20.8499 25.6021 20.192 26.6662 18.8921C27.7038 17.6257 27.9845 16.1239 28.0227 14.559C28.0348 14.0686 27.9419 13.5734 27.8496 13.0814C27.8307 12.9806 27.8118 12.88 27.7938 12.7795C27.4691 10.9616 26.45 9.64298 24.8129 8.84038C23.6875 8.2972 22.455 8.01615 21.207 8.01808C19.5627 8.0102 17.9184 8.01283 16.274 8.01545C15.4519 8.01677 14.6297 8.01808 13.8075 8.01808ZM18.0882 12.0833C18.0953 12.0309 18.1067 11.9792 18.1224 11.9287C18.4182 11.9287 18.7119 11.9218 19.0036 11.915C19.6429 11.9 20.2732 11.8853 20.897 11.9434C22.7464 12.1178 23.5131 13.2916 23.298 15.1282C23.2119 15.8609 22.9488 16.503 22.2877 16.8349C21.7924 17.0789 21.2579 17.2323 20.7092 17.2879C20.2228 17.3366 19.7309 17.3269 19.2386 17.3172C18.9747 17.312 18.7106 17.3068 18.4471 17.3105C18.1978 17.3135 18.0814 17.2465 18.0814 16.9678C18.0882 15.34 18.0882 13.7111 18.0882 12.0833Z" fill="black"/>
<path d="M84.7579 12.5718H79.1139V8.04866H95.3574V8.47409C95.3574 8.8036 95.3562 9.13319 95.355 9.46279C95.3519 10.3281 95.3487 11.1934 95.3672 12.0577C95.375 12.4605 95.2772 12.5964 94.8547 12.5905C93.6174 12.5733 92.3796 12.5759 91.1163 12.5786C90.6461 12.5796 90.1724 12.5806 89.6938 12.5806V27.4372C89.6938 27.9817 89.6938 27.9827 89.1726 27.9827C88.8142 27.9827 88.4558 27.9817 88.0974 27.9807L88.0957 27.9807C87.1471 27.9779 86.1985 27.9752 85.2498 27.9916C84.8586 27.9985 84.7491 27.8852 84.7501 27.4903C84.7631 22.6977 84.7657 17.9051 84.7579 13.1124V12.5718Z" fill="black"/>
<path d="M12.8335 22.6846C12.8491 22.1636 12.7836 21.7175 12.2017 21.5609C12.2188 21.5221 12.2373 21.4861 12.2547 21.4522C12.2959 21.3721 12.3307 21.3043 12.3259 21.2399C12.3287 20.8837 12.3251 20.5271 12.3215 20.1706C12.3188 19.9032 12.3161 19.6359 12.3161 19.3688C12.3109 19.2775 12.3352 19.1869 12.3856 19.1108C12.4595 19.0255 12.5464 18.9455 12.6333 18.8655C12.7995 18.7126 12.9657 18.5596 13.0408 18.3702C13.4425 17.4058 13.7851 16.4175 14.0667 15.4109C14.4374 13.9968 14.7973 12.5649 14.4374 11.0779C14.4352 11.0689 14.4331 11.0599 14.4309 11.0509C14.2288 10.2131 14.0287 9.38369 13.1259 8.9842C13.0172 8.93573 12.9245 8.85224 12.8312 8.76817C12.7634 8.70708 12.6952 8.64568 12.6203 8.59718C12.5097 8.52572 12.4006 8.44674 12.2913 8.36761C12.009 8.16322 11.7252 7.9578 11.4115 7.87829C10.5597 7.66262 9.63349 8.17372 9.17775 9.00784C8.34352 10.5382 8.09022 12.167 8.5313 13.8619C8.84426 15.0535 9.19242 16.2381 9.60709 17.3963C9.86332 18.1142 10.231 18.8104 10.8912 19.1905C10.8897 19.3688 10.8868 19.5455 10.884 19.7209C10.8742 20.3333 10.8646 20.9314 10.9117 21.5353C10.8761 21.5855 10.833 21.6384 10.7874 21.6943C10.6792 21.827 10.5571 21.9767 10.4883 22.1479C10.2475 22.7534 10.0536 23.3763 9.86021 23.9975L9.85354 24.019C9.81832 24.1274 9.81471 24.2458 9.8108 24.3742C9.80895 24.4348 9.80704 24.4976 9.80171 24.5626C9.53662 24.658 9.5644 24.926 9.59059 25.1787L9.59144 25.1869C9.63443 25.595 9.68116 26.0047 9.72783 26.4139C9.79052 26.9635 9.8531 27.5121 9.90635 28.0546C9.95574 28.5577 9.99822 29.0616 10.0407 29.5654C10.0781 30.0094 10.1156 30.4534 10.1577 30.8967C10.1636 30.9571 10.202 31.0095 10.2438 31.0665C10.264 31.094 10.2849 31.1226 10.3034 31.1537C10.3221 31.1852 10.3451 31.2162 10.3679 31.247C10.4145 31.3098 10.4608 31.3723 10.4707 31.4384C10.5079 31.6879 10.5515 31.9367 10.5952 32.1856C10.7337 32.9756 10.8723 33.7655 10.8061 34.5788C10.7942 34.7319 10.8237 34.8887 10.8546 35.0527C10.8692 35.1303 10.8841 35.2096 10.8951 35.2908C10.837 35.3038 10.7776 35.3101 10.7181 35.3095C10.41 35.2908 10.2301 35.3657 10.2144 35.7448C10.2006 36.0609 10.1638 36.3757 10.1269 36.6906C10.0909 36.9986 10.0548 37.3067 10.0403 37.6159C10.0286 37.8562 10.2046 38.0394 10.498 37.9931C10.6917 37.9557 10.8878 37.9323 11.0848 37.9232C11.9145 37.9184 12.7442 37.9185 13.5739 37.9186C14.4432 37.9187 15.3125 37.9189 16.1821 37.9133C16.306 37.9127 16.4304 37.869 16.5546 37.8255C16.6117 37.8054 16.6689 37.7854 16.7259 37.7696V37.6307C16.5997 37.516 16.4632 37.4135 16.3181 37.3244C15.3215 36.8379 14.3249 36.3534 13.3186 35.8886C12.923 35.7063 12.5184 35.5437 12.1211 35.3841C11.9496 35.3151 11.7795 35.2468 11.612 35.1776C11.6335 34.9373 11.6628 34.6103 11.6931 34.2834C11.717 34.0204 11.7362 33.7561 11.7555 33.4917C11.8025 32.8456 11.8495 32.1993 11.964 31.5703C11.9959 31.3931 12.0789 31.228 12.1633 31.0603C12.2863 30.8159 12.4121 30.5658 12.3865 30.2645C12.3779 30.009 12.3946 29.7534 12.4364 29.5013C12.484 29.093 12.5345 28.6848 12.585 28.2765C12.6394 27.8369 12.6938 27.3972 12.7445 26.9576C12.7651 26.7893 12.7872 26.6211 12.8092 26.4529C12.8685 25.9999 12.9278 25.5467 12.9606 25.0914C12.9698 24.9567 12.9196 24.8179 12.8645 24.6661C12.8379 24.5926 12.8102 24.5161 12.7875 24.4355C12.8463 24.2731 12.8838 24.1035 12.899 23.9313C12.8986 23.7396 12.8821 23.5477 12.8656 23.3559C12.8464 23.1318 12.8272 22.9079 12.8335 22.6846Z" fill="black"/>
<path d="M18.9909 0L7.86525 1.05963L0.5 9.7622L3.29999 9.51403V11.6569C3.15862 11.7104 3.03417 11.8012 2.93973 11.9198C2.84529 12.0385 2.78436 12.1806 2.76334 12.3311C2.74232 12.4817 2.76199 12.6352 2.82029 12.7755C2.87859 12.9157 2.97335 13.0376 3.09461 13.1282C3.01539 13.7516 2.75525 15.1963 2.75525 15.1963C2.75525 15.1963 2.87652 15.4228 3.29999 15.4228C3.51124 15.4228 3.66478 15.3144 3.91906 15.2563C4.11974 15.2184 4.32322 15.1973 4.52737 15.1933L4.03837 13.1765C4.16804 13.0983 4.27439 12.9865 4.3462 12.8526C4.41802 12.7187 4.45265 12.5678 4.44644 12.4158C4.44023 12.2638 4.39342 12.1162 4.31093 11.9887C4.22845 11.8613 4.11334 11.7585 3.97774 11.6914V9.45101L5.36844 9.32692L7.3968 12.4487C7.3968 12.4487 7.35963 8.68386 9.55816 7.35932C11.3049 6.39423 12.3386 7.22736 12.3386 7.22736H18.0501L15.7371 3.72742L18.9909 0Z" fill="#00A3FF"/>
</svg>
